# xmcd CD database file
#
# Track frame offsets:
#	150
#	16308
#	28070
#	47127
#	63272
#	81350
#	95202
#	109467
#
# Disc length: 1585 seconds
#
# Revision: 0
# Processed by: cddbd v1.5.2PL0 Copyright (c) Steve Scherf et al.
# Submitted via: CDex 1.70beta2
#
DISCID=6b062f08
DTITLE=Jones Country - Jones Country JCY-026
DYEAR=0000
DGENRE=Country
TTITLE0=Bill Anderson/Corner Of My Life
TTITLE1=Patsy Cline/When I Get Thru With You (You'll Love Me Too)
TTITLE2=Mac Davis/It's Hard To Be Humble
TTITLE3=David Frizzell and Shelly West/I Just Came Here To Dance
TTITLE4=Ronnie Milsap/Nobody Likes Sad Songs
TTITLE5=Charley Pride/All I Have To Offer Is Me
TTITLE6=Charley Pride/Shouldn't It Be Easier Than This
TTITLE7=Johnny Rodriguez/Ridin' My Thumb To Mexico
EXTD=YEAR: 0000
EXTT0=
EXTT1=
EXTT2=
EXTT3=
EXTT4=
EXTT5=
EXTT6=
EXTT7=
PLAYORDER=
